<svg xmlns="http://www.w3.org/2000/svg" xmlns:xlink="http://www.w3.org/1999/xlink">

    <symbol id="arrow-circle-right" xmlns="http://www.w3.org/2000/svg" viewBox="0 0 30.8 30.8">
        <path d="M14.4 19.5l-.7-.7 3.6-3.4-3.6-3.3.7-.8 4.3 4.1z"/>
        <path d="M30.8 15.4c0 8.5-6.9 15.4-15.4 15.4S0 23.9 0 15.4 6.9 0 15.4 0s15.4 6.9 15.4 15.4zM1 15.4c0 7.9 6.5 14.4 14.4 14.4s14.4-6.5 14.4-14.4S23.4 1 15.4 1C7.5 1 1 7.5 1 15.4z"/>
    </symbol>

    <symbol id="arrow-down" xmlns="http://www.w3.org/2000/svg" viewBox="0 0 16.4 31.7">
        <path d="M7.2 0h2v29.5h-2z"/>
        <path d="M0 22.9l1.5-1.4 6.7 7.2 6.7-7.2 1.5 1.4-8.2 8.8z"/>
    </symbol>

    <symbol id="arrow-right" xmlns="http://www.w3.org/2000/svg" viewBox="0 0 74.7 16.4">
        <style>.cst0{clip-path:url(#cSVGID_2_)}</style>
        <defs>
            <path id="cSVGID_1_" d="M0 0h74.7v16.4H0z"/>
        </defs>
        <clipPath id="cSVGID_2_">
            <use xlink:href="#cSVGID_1_" overflow="visible"/>
        </clipPath>
        <path class="cst0" d="M0 7.2h72.5v2H0z"/>
        <path d="M71.7 8.2l-7.2 6.7 1.4 1.5 8.8-8.2L65.9 0l-1.4 1.5z"/>
    </symbol>

    <symbol id="close" xmlns="http://www.w3.org/2000/svg" viewBox="0 0 10 10">
        <defs>
            <style>.dcls-1{fill:#fff;fill-rule:evenodd}</style>
        </defs>
        <path class="dcls-1" d="M5433.99 76.339l9.35-9.345.67.668-9.35 9.345z" transform="translate(-5434 -67)"/>
        <path id="dRectangle_4_copie_4" data-name="Rectangle 4 copie 4" class="dcls-1" d="M5434.66 66.994l9.35 9.345-.67.667-9.35-9.345z" transform="translate(-5434 -67)"/>
    </symbol>

    <symbol id="cta-pen" xmlns="http://www.w3.org/2000/svg" viewBox="0 0 125.8 125.9">
        <style>.est0{fill:none;stroke:#7f7f7f;stroke-width:1.75;stroke-linejoin:round;stroke-miterlimit:10}</style>
        <path class="est0" d="M6.1 93.5L.9 125l31.4-5.3zM6.1 93.5L98.8.9 124.9 27l-92.6 92.7"/>
    </symbol>

    <symbol id="cta-products" xmlns="http://www.w3.org/2000/svg" viewBox="0 0 200 200">
        <style>.fst0{fill:none;stroke:#7f7f7f;stroke-width:1.75;stroke-miterlimit:10}</style>
        <path class="fst0" d="M169.1 36.6l4.6 10.4h6.5v17l16.8 5.7-66.1 102.1-39.1-3.8-87.5-45.4 38.2-85.1L97.4 29l49.3 13.2z"/>
    </symbol>

    <symbol id="heart" xmlns="http://www.w3.org/2000/svg" viewBox="0 0 20.5 18.9" style="stroke-width: 2px; fill: none;">
        <path d="M5.7 1.5c-2.3 0-4.2 1.9-4.2 4.2 0 5.4 7 10.3 8.8 11.5C12 16 19 11.1 19 5.7c0-2.3-1.9-4.2-4.2-4.2-2.1 0-2.9 1.1-3.7 2.3L10.3 5l-.9-1.2c-.8-1.2-1.6-2.3-3.7-2.3z"/>
    </symbol>

    <symbol id="logo" xmlns="http://www.w3.org/2000/svg" viewBox="0 0 457.8 78.3">
        <path d="M226.7.8c-.5-.4-1.1-.7-1.6-.7h-18.9l1.5 1.4c1.6 1.4 5.5 4.9 9.5 8.5 3.8 3.4 7.7 6.8 9.2 8.2l1.3 1.1-.2-16.9c-.1-.6-.4-1.2-.8-1.6zM14.2 54.7c-.1-4 0-12.9 0-15.5V23.6c-.1-13.3.4-20.6.8-22l.4-1.5H0l.4 1.6c.4 1.6.6 9.6.7 22 .1 4.3 0 15.6 0 15.7 0 3.3.1 11.4 0 15.3C.9 63 .6 75.8.4 76.8L0 78.3h15.3l-.4-1.5c-.3-1.7-.5-9.7-.7-22.1zM192.4 54.7c-.1-4 0-12.9 0-15.5V23.6c-.1-13.3.4-20.6.8-22l.4-1.5h-15.3l.4 1.6c.4 1.6.6 9.6.7 22 .1 4.3 0 15.6 0 15.7 0 3.3.1 11.4 0 15.3-.2 8.4-.5 21.2-.7 22.1l-.4 1.5h15.3l-.4-1.5c-.4-1.7-.6-9.7-.8-22.1zM287 54.7c-.1-4 0-12.9 0-15.5V23.6c-.1-13.3.4-20.6.8-22l.4-1.5h-15.3l.4 1.6c.4 1.6.6 9.6.7 22 .1 4.3 0 15.6 0 15.7 0 3.3.1 11.4 0 15.3-.2 8.4-.5 21.2-.7 22.1l-.4 1.5h15.3l-.4-1.5c-.4-1.7-.6-9.7-.8-22.1zM442.9 76.8l-.4 1.5h15.3l-.4-1.5c-.3-1.7-.5-9.8-.7-22.2-.1-4 0-12.9 0-15.5V23.5c-.1-13.3.4-20.6.8-22l.4-1.5h-15.3l.4 1.6c.4 1.6.6 9.6.7 22 .1 4.3 0 15.6 0 15.7 0 3.3.1 11.4 0 15.3-.3 8.4-.6 21.2-.8 22.2zM212.5 37.1c-1.5.6-3.3 1.3-4.8 1.7-1.1.3-4.5 1.2-4.5 1.2l-1.8.5 6.3 1.7c1.2.4 3.1 1 4.9 1.7 3.4 1.4 6.7 3.7 6.8 3.7l1.4 1V32.4l-1.4 1c-.2 0-3.5 2.3-6.9 3.7zM396.1 58.9l-43-57.2C352.3.6 351 0 349.5 0h-14.4l60 78.3H396.9V61.6c.1-.9-.2-1.9-.8-2.7zM387.3 1.7s2.8 4.2 4.6 8.5c.8 1.8 1.6 4.1 2.1 6.1.4 1.4 1.5 5.6 1.5 5.6l.5 1.8 2-7.4c.5-1.6 1.2-3.9 2.1-6.1 1.8-4.3 4.6-8.4 4.6-8.5l1.1-1.6h-19.7l1.2 1.6zM346.4 68.3c-.8-1.8-1.6-4.1-2.1-6.1-.4-1.4-1.5-5.6-1.5-5.6l-.5-1.8-2 7.4c-.5 1.6-1.2 3.9-2.1 6.1-1.8 4.2-4.5 8.3-4.6 8.5l-1.1 1.6h19.7l-1.1-1.6c-.2-.2-3-4.3-4.7-8.5zM128.4 58.9l-43-57.2C84.7.6 83.4 0 81.9 0H67.5l60 78.3H129.3V61.6c0-.9-.3-1.9-.9-2.7zM119.6 1.7s2.8 4.2 4.6 8.5c.8 1.8 1.6 4.1 2.1 6.1.4 1.4 1.5 5.6 1.5 5.6l.5 1.8 2-7.4c.5-1.6 1.2-3.9 2.1-6.1 1.8-4.3 4.6-8.4 4.6-8.5l1.1-1.6h-19.7l1.2 1.6zM78.7 68.3c-.8-1.8-1.6-4.1-2.1-6.1-.4-1.4-1.5-5.6-1.5-5.6l-.5-1.8-2 7.4c-.5 1.6-1.2 3.9-2.1 6.1-1.8 4.2-4.5 8.3-4.6 8.5l-1.1 1.6h19.7l-1.1-1.6c-.2-.2-2.9-4.3-4.7-8.5z"/>
    </symbol>

    <symbol id="search" xmlns="http://www.w3.org/2000/svg" viewBox="0 0 31.2 30.4">
        <path d="M31.2 28.3L24.9 22c1.7-2.3 2.7-5.1 2.7-8.1C27.6 6.2 21.4 0 13.8 0S0 6.2 0 13.8s6.2 13.8 13.8 13.8c3.5 0 6.7-1.3 9.1-3.4l6.2 6.2 2.1-2.1zM3 13.8C3 7.8 7.8 3 13.8 3s10.8 4.8 10.8 10.8-4.8 10.8-10.8 10.8S3 19.8 3 13.8z"/>
    </symbol>

    <symbol id="shape-lines" xmlns="http://www.w3.org/2000/svg" viewBox="0 0 18.7 36.7">
        <style>.jst0{fill:none;stroke:#7f7f7f;stroke-width:3e-2;stroke-miterlimit:10}</style>
        <path class="jst0" d="M13.7 6.6c1 1.5 1 4.5.9 6.1l4.1-1c.1-1 .3-5.4-1.2-7.7-1.1-1.8-2.4-3-5.4-3.9L8.6 3.2c1.1.3 3.6 1.1 5.1 3.4zM9.9 33.4c-1.2-.3-3.4-1.2-4.8-3.3-1-1.5-1-4.5-.9-6.1L.1 25c-.1 1-.3 5.4 1.2 7.7 1.1 1.8 2.4 3 5.5 3.9l3.1-3.2M13.7 25.4c-.6-1.6-1.4-2.5-3.2-3.8-5.2-3.7-8.2-5.9-8.2-5.9-2.6-2.2-2.2-4.7-2-5.5 0-.2.1-.5.2-.7l4.3-4c-.2 1-.4 3.2.2 4.9.6 1.6 1.5 2.6 3.2 3.8 5.2 3.8 7.9 5.7 8.2 5.9 2.6 2.2 2.2 4.7 2 5.5l-.3.9-3.8 4c0 .1.1-3.4-.6-5.1z"/>
    </symbol>

    <symbol id="layer" xmlns="http://www.w3.org/2000/svg" viewBox="0 0 18.7 36.7" stroke="#7f7f7f" stroke-width="0.01px" fill="transparent">
        <path d="M14.3,30.6"></path>
        <path d="M13.7,6.6c1,1.5,1,4.5,0.9,6.1l4.1-1c0.1-1,0.3-5.4-1.2-7.7c-1.1-1.8-2.4-3-5.4-3.9L8.6,3.2 C9.7,3.5,12.2,4.3,13.7,6.6z"></path>
        <path d="M9.9,33.4L9.9,33.4L9.9,33.4c-1.2-0.3-3.4-1.2-4.8-3.3c-1-1.5-1-4.5-0.9-6.1l-4.1,1c-0.1,1-0.3,5.4,1.2,7.7 c1.1,1.8,2.4,3,5.5,3.9L9.9,33.4"></path>
        <path d="M13.7,25.4c-0.6-1.6-1.4-2.5-3.2-3.8c-5.2-3.7-8.2-5.9-8.2-5.9c-2.6-2.2-2.2-4.7-2-5.5c0-0.2,0.1-0.5,0.2-0.7 l4.3-4C4.6,6.5,4.4,8.7,5,10.4C5.6,12,6.5,13,8.2,14.2c5.2,3.8,7.9,5.7,8.2,5.9c2.6,2.2,2.2,4.7,2,5.5l0,0 c-0.1,0.3-0.2,0.6-0.3,0.9l-3.8,4C14.3,30.6,14.4,27.1,13.7,25.4z"></path>
    </symbol>
</svg>